<svg xmlns="http://www.w3.org/2000/svg" xmlns:xlink="http://www.w3.org/1999/xlink" width="1080" zoomAndPan="magnify" viewBox="0 0 810 809.999993" height="1080" preserveAspectRatio="xMidYMid meet" version="1.0"><path fill="#d9d9d9" d="M 569.128906 307.394531 C 563.507812 305.410156 562.527344 305.59375 560.367188 311.144531 C 548.894531 340.660156 550.359375 340.136719 558.644531 340.621094 C 563.164062 340.878906 561.699219 341.445312 569.128906 307.394531 Z M 571.894531 258.8125 C 576.585938 260.195312 580.558594 261.363281 584.621094 262.5625 C 588.695312 253.855469 592.726562 245.25 596.925781 236.28125 C 581.191406 231.882812 584.550781 230.472656 571.894531 258.8125 Z M 369.574219 219.378906 C 384.515625 217.054688 385.503906 217.867188 385.507812 213.816406 C 385.535156 182.171875 386.347656 182.101562 387.4375 170.863281 C 380.550781 171.214844 373.964844 171.558594 367.023438 171.914062 C 367.894531 188.160156 368.734375 203.695312 369.574219 219.378906 Z M 475.558594 235.121094 C 488.792969 232.367188 493.066406 232.265625 493.9375 229.855469 C 498.296875 217.71875 502.535156 205.539062 506.816406 193.335938 C 500.945312 191.652344 478.59375 193.472656 473.558594 195.730469 C 474.226562 208.808594 474.886719 221.871094 475.558594 235.121094 Z M 289.289062 549.03125 C 276.347656 553.367188 273.695312 553.21875 273.851562 558.015625 C 274.269531 570.699219 274.28125 583.414062 275.207031 596.0625 C 275.503906 600.148438 279.648438 622.480469 287 612.054688 C 288.164062 610.410156 289.230469 608.570312 289.796875 606.65625 C 294.667969 590.207031 292.980469 590.332031 289.289062 549.03125 Z M 171.855469 309.335938 C 163.605469 342.882812 166.804688 363.703125 177.789062 396.199219 C 178.972656 399.695312 181.816406 403.019531 185.96875 402.792969 C 196.253906 402.238281 198.042969 375.804688 197.53125 365.246094 C 197.472656 364.105469 196.558594 362.824219 195.707031 361.933594 C 181.640625 347.28125 180.316406 337.308594 171.855469 309.335938 Z M 306.160156 475.574219 C 319.796875 471.148438 319.878906 471.195312 323.636719 484.886719 C 329.367188 484.570312 339.96875 481.019531 350.3125 473.433594 C 355.417969 469.6875 358.320312 464.546875 357.65625 458.269531 C 356.605469 448.285156 355.246094 438.296875 353.269531 428.460938 C 352.371094 423.96875 346.742188 415.640625 340.582031 416.777344 C 311.5625 422.125 296.097656 427.816406 300.148438 456.648438 C 301.082031 463.3125 302.566406 469.792969 306.160156 475.574219 Z M 372.96875 644.125 C 367.484375 551.597656 359.925781 523.007812 358.546875 515.132812 C 358.097656 512.570312 356.84375 512.097656 354.53125 512.566406 C 345.953125 514.320312 337.257812 515.574219 328.804688 517.789062 C 291.527344 527.550781 299.484375 539.359375 301.199219 580.105469 C 301.476562 586.722656 305.640625 582.890625 326.648438 587.308594 C 333.03125 588.652344 336.023438 592.019531 335.949219 598.378906 C 335.570312 631.332031 335.203125 647.6875 309.257812 671.777344 C 308.332031 672.640625 306.890625 673.738281 306.910156 674.699219 C 307.382812 697.539062 307.875 697.71875 311.226562 699.628906 C 321.851562 705.6875 333.582031 706.335938 345.417969 706.320312 C 368.265625 706.28125 373.992188 687.992188 372.96875 644.125 Z M 627.738281 560.707031 C 626.113281 552.785156 624.578125 545.304688 623.054688 537.890625 C 619.914062 537.203125 614.125 537.316406 614.25 535.222656 C 651.4375 521.804688 649.476562 523.492188 645.375 509.867188 C 643.476562 503.550781 643.730469 505.292969 618.347656 510.472656 C 617.214844 510.703125 614.558594 509.917969 614.4375 509.625 C 615.769531 508.207031 617.105469 506.789062 618.308594 505.511719 C 617.054688 500.308594 615.808594 495.160156 614.472656 489.605469 C 608.898438 491.921875 603.535156 494.152344 598.175781 496.382812 C 607.589844 483.160156 621.722656 478.113281 636.054688 473.269531 C 650.519531 468.390625 665.066406 464.941406 680.644531 469.277344 C 680.644531 442.144531 662.886719 420.789062 653.675781 423.058594 C 573.035156 442.960938 591.414062 434.441406 572.753906 461.542969 C 570.226562 465.210938 569.804688 468.832031 570.261719 473.296875 C 578.152344 550.761719 609.074219 618.910156 618.753906 617.363281 C 649.707031 612.414062 676.285156 597.28125 678.921875 589.421875 C 684.464844 572.90625 683.601562 560.292969 682.601562 547.953125 C 629.523438 567.96875 620.417969 569.144531 612.074219 567.257812 C 612.066406 566.796875 622.523438 562.421875 627.738281 560.707031 Z M 165.308594 389.996094 C 157.183594 361.957031 151.746094 313.546875 172.722656 293.0625 C 167.207031 292.425781 163.296875 293.960938 157.199219 295.765625 C 158.613281 291.257812 167.675781 287.164062 176.351562 287.410156 C 188.847656 287.769531 195.210938 294.375 199.59375 311.539062 C 209.96875 310.972656 214.679688 308.832031 217.902344 296.117188 C 220.949219 284.109375 218.378906 272.875 213.496094 261.839844 C 200.667969 232.847656 152.328125 234.363281 127.367188 284.449219 C 113.640625 311.988281 107.503906 343.289062 110.558594 373.953125 C 112.871094 397.171875 120.332031 421.90625 136.335938 439.484375 C 141.164062 444.789062 146.90625 449.429688 153.546875 452.246094 C 160.234375 455.085938 167.835938 455.695312 175.007812 456.316406 C 183.605469 457.0625 192.757812 456.679688 200.992188 453.46875 C 209.640625 450.089844 216.902344 443.542969 222.648438 436.378906 C 238.679688 416.375 244.828125 388.5625 239.949219 363.53125 C 236.90625 347.929688 220.96875 357.113281 209.195312 361.078125 C 204.226562 362.753906 208.273438 368.660156 204.722656 389.417969 C 199.316406 420.953125 167.207031 417.789062 162.925781 410.449219 C 169.519531 411.441406 173.066406 411.441406 176.417969 408.839844 C 170.085938 403.066406 167.265625 396.738281 165.308594 389.996094 Z M 630.867188 362.027344 C 640.792969 362.527344 652.261719 361.035156 658.496094 359.394531 C 662.855469 358.246094 668.871094 356.132812 669.675781 351.542969 C 670.417969 347.320312 670.347656 342.957031 670.664062 338.652344 C 670.863281 335.941406 669.644531 334.671875 666.957031 334.550781 C 640.359375 333.339844 634.355469 332.460938 631.585938 330.210938 C 631.621094 329.648438 640.078125 329.097656 644.886719 326.496094 C 643.921875 316.667969 647.136719 308.09375 649.460938 299.132812 C 641.980469 297.636719 634.753906 296.195312 626.828125 294.613281 C 638.511719 290.078125 644.488281 290.871094 687.410156 297.8125 C 694.417969 298.945312 694.433594 299.234375 696.832031 292.484375 C 702.109375 277.617188 709.054688 251.226562 694.921875 244.160156 C 676.441406 234.921875 663.847656 227.714844 646.226562 225.296875 C 630.96875 255.691406 635.984375 255.902344 605.382812 239.851562 C 601.289062 248.550781 597.410156 256.800781 593.570312 264.960938 C 597.390625 266.746094 609.746094 270.789062 608.015625 280.390625 C 606.113281 290.980469 601.527344 300.441406 594.347656 308.472656 C 589.675781 313.703125 584.789062 311.554688 577.9375 310.097656 C 575.691406 320.164062 573.523438 329.875 571.277344 339.933594 C 610.320312 337.195312 606.207031 334.480469 602.96875 365.335938 C 600.675781 387.136719 591.214844 403.96875 570.082031 413.226562 C 569.863281 421.769531 573.875 428.929688 578.75 435.160156 C 592.578125 428.6875 577.234375 432.066406 653.519531 413.90625 C 657.488281 412.960938 661.824219 413.363281 664.777344 416.242188 C 683.835938 434.816406 681.617188 436.417969 688.257812 451.304688 C 699.140625 451.8125 712.195312 440.09375 712.335938 432.742188 C 713.085938 393.058594 714.320312 382.324219 706.746094 385.253906 C 700.042969 387.847656 693.269531 390.265625 686.605469 392.949219 C 656.777344 404.972656 635.8125 398.167969 628.597656 389.242188 C 632.824219 389.703125 636.167969 390.394531 639.546875 389.84375 C 638.984375 382.03125 638.445312 374.570312 637.898438 366.921875 C 635.742188 365.855469 630.710938 362.421875 630.867188 362.027344 Z M 251.378906 381.914062 C 258.941406 382.386719 311.640625 376.039062 318.140625 289.351562 C 326.542969 177.214844 265.507812 128.636719 218.8125 158.140625 C 190.675781 175.917969 176.816406 202.570312 173.066406 234.925781 C 219.085938 224.648438 240.554688 281.03125 221.210938 310.808594 C 218.199219 315.441406 214.21875 318.691406 208.621094 319.597656 C 184.210938 323.566406 193.125 316.90625 187.441406 302.484375 C 186.546875 300.214844 184.511719 298.394531 180.4375 299.457031 C 183.246094 313.847656 185.789062 336.304688 199.171875 352.308594 C 202.269531 356.019531 202.078125 353.527344 217.894531 347.710938 C 238.972656 339.957031 249.539062 354.480469 250.433594 367.570312 C 250.761719 372.324219 251.0625 377.085938 251.378906 381.914062 Z M 273.757812 621.472656 C 268.714844 608.320312 263.320312 603.238281 264.632812 557.851562 C 265.007812 544.980469 273.449219 545.335938 288.25 539.476562 C 289.410156 539.011719 290.847656 537.828125 291.105469 536.726562 C 293.628906 526.011719 300.675781 519.308594 310.085938 514.503906 C 316.0625 511.457031 314.613281 489.671875 313.671875 482.675781 C 280.910156 494.945312 289.351562 494.90625 238.980469 499.9375 C 237.90625 500.046875 245.574219 495.203125 270.695312 488.636719 C 271.765625 488.359375 273.15625 486.605469 273.191406 485.496094 C 274.191406 454.089844 274.21875 454.640625 267.875 454.855469 C 251.65625 455.414062 220.019531 457.285156 216.449219 472.539062 C 212.535156 489.300781 211.875 495.433594 202.757812 496.570312 C 175.539062 499.960938 155.679688 496.09375 147.449219 494.898438 C 143.898438 575.039062 144.566406 558.199219 244.054688 550.457031 C 242.429688 553.285156 203.765625 560.890625 204.609375 569.152344 C 206.253906 585.257812 207.761719 601.398438 210.214844 617.390625 C 219.839844 680.078125 272.265625 684.632812 297.316406 669.121094 C 322.347656 653.625 328.628906 628.21875 326.738281 599.351562 C 326.519531 596.023438 322.429688 595.277344 310.476562 593.847656 C 301 592.710938 302.269531 592.941406 300.808594 601.429688 C 296.625 625.695312 278.039062 630.425781 258.511719 626.921875 C 257.355469 626.714844 262.84375 624.863281 273.757812 621.472656 Z M 334.207031 166.804688 C 347.496094 168.339844 361.316406 163.550781 374.566406 162.390625 C 388.855469 161.140625 403.257812 161.960938 417.125 165.773438 C 422.261719 167.1875 422.808594 166.589844 423.300781 161.261719 C 428.964844 99.625 425.871094 97.65625 414.035156 95.753906 C 388.109375 91.574219 362.25 90.609375 336.46875 97.085938 C 295.40625 107.410156 289.328125 112.695312 289.195312 120.792969 C 288.625 156.328125 287.085938 155.980469 292.03125 160.917969 C 305.714844 174.578125 315.773438 190.6875 320.488281 209.398438 C 333.824219 262.316406 332.945312 341.605469 290.941406 375.117188 C 290.40625 375.546875 289.734375 376.183594 289.679688 376.773438 C 289.195312 381.949219 288.835938 387.140625 288.417969 392.640625 C 295.699219 391.914062 299.875 389.914062 326.957031 383.476562 C 366.441406 374.09375 366.972656 377.28125 367 367.578125 C 367.285156 266.121094 367.296875 275.664062 366.851562 273.015625 C 364.023438 270.453125 345.375 276.121094 345.113281 275.507812 C 359.472656 264.550781 385.640625 260.433594 399.878906 257.058594 C 402.648438 256.402344 404.003906 254.5 403.984375 251.515625 C 403.773438 219.410156 409.355469 221.097656 350.507812 233.53125 C 350.253906 233.121094 350.246094 233.113281 349.996094 232.707031 C 362.605469 217.882812 361.761719 240.609375 357.84375 172.210938 C 339.351562 172.652344 334.195312 167.234375 334.207031 166.804688 Z M 503.789062 230.425781 C 517.175781 234.089844 516.746094 257.914062 511.652344 271.386719 C 509.777344 276.339844 506.410156 279.289062 501.230469 280.21875 C 499.695312 280.492188 498.164062 280.894531 496.617188 280.953125 C 493.777344 281.058594 492.101562 282.183594 491.148438 285.054688 C 484.660156 304.617188 480.972656 310.691406 480.996094 319.554688 C 481.085938 349.347656 484.929688 368.015625 472.800781 381.46875 C 485.21875 392.578125 496.898438 393.882812 535.375 399.820312 C 567.4375 404.769531 570.4375 405.3125 578.707031 397.496094 C 593.726562 383.304688 593.652344 367.230469 595.675781 347.761719 C 566.152344 349.023438 544.019531 353.425781 518.566406 338.554688 C 518.632812 338.21875 534.738281 339.59375 542.683594 340.605469 C 543.699219 326.113281 548.742188 313.890625 554.734375 301.730469 C 550.285156 297.878906 543.476562 296.800781 539.429688 290.445312 C 544.179688 291.15625 578.726562 300.621094 583.109375 301.851562 C 586.449219 302.785156 588.777344 302.332031 590.3125 299.285156 C 599.554688 280.902344 601.933594 277.820312 594.230469 275.214844 C 560.800781 263.925781 551.253906 261.515625 547.136719 260.320312 C 547.214844 259.738281 553.015625 257.207031 563.121094 256.824219 C 567.113281 247.792969 570.921875 238.679688 574.941406 229.207031 C 559.171875 223.753906 553.328125 224.359375 550.160156 222.390625 C 554.777344 220.230469 593.621094 221.238281 623.25 239.085938 C 624.644531 239.925781 626.246094 240.433594 627.675781 241.0625 C 634.066406 232.730469 644.648438 204.515625 645.425781 194.777344 C 646.640625 179.605469 638.601562 176.6875 628.867188 172.066406 C 615.171875 165.574219 600.425781 162.664062 585.707031 159.949219 C 550.691406 153.488281 541.015625 153.589844 531.890625 165.332031 C 515 187.082031 516.296875 195.101562 503.789062 230.425781 Z M 447.019531 287.726562 C 476.078125 274.703125 468.578125 276.042969 497.78125 271.640625 C 501.109375 271.140625 502.808594 269.578125 503.769531 266.460938 C 505.859375 259.65625 506.375 252.820312 504.960938 245.84375 C 503.648438 239.402344 502.933594 238.761719 496.539062 240.195312 C 472.800781 245.523438 464.25 248.085938 456.566406 249.335938 C 456.386719 249.046875 466.480469 241.710938 466.378906 238.3125 C 465.539062 209.046875 464.300781 197.804688 464.089844 195.15625 C 456.535156 193.796875 439.582031 197.6875 439.425781 197.148438 C 448.582031 192.125 464.769531 185.886719 476.347656 185.488281 C 486.640625 185.128906 496.910156 184.113281 507.203125 183.636719 C 511.640625 183.429688 510.042969 181.273438 520.003906 166.097656 C 524.382812 159.429688 529.378906 153.308594 536.921875 149.835938 C 537.804688 149.429688 538.660156 148.148438 538.824219 147.15625 C 544.269531 114.90625 545.742188 112.097656 533.164062 107.855469 C 490.972656 93.625 464.9375 102.570312 435.550781 109.105469 C 432.4375 185.5625 435.824219 178.484375 397.351562 171.214844 C 395.035156 179.433594 393.597656 207.421875 394.953125 215.886719 C 412.320312 218.707031 413.957031 224.117188 413.019531 253.191406 C 412.675781 263.707031 403.988281 265.25 394.546875 268.445312 C 394.625 309.492188 392.023438 350.507812 395.699219 391.902344 C 451.996094 372.839844 468.1875 381.726562 470.675781 366.621094 C 471.375 362.371094 472.375 358.070312 472.308594 353.800781 C 471.949219 330.914062 471.496094 303.148438 469.378906 284.289062 C 461.816406 286.195312 447.242188 288.40625 447.019531 287.726562 Z M 430.367188 448.148438 C 430.824219 448.15625 432.65625 451.160156 432.6875 452.664062 C 433.433594 488.347656 439.121094 518.957031 454.4375 595.820312 C 459.925781 623.371094 469.839844 652.210938 487.882812 673.648438 C 489.191406 675.195312 490.660156 675.097656 491.746094 673.476562 C 529.832031 616.554688 527.25 455.160156 527.363281 452.496094 C 527.742188 452.433594 528.113281 452.371094 528.484375 452.308594 C 543.414062 487.429688 531.394531 592.804688 567.421875 653.84375 C 577.765625 671.363281 593.632812 664.839844 610.316406 657.804688 C 616.878906 655.035156 621.886719 650.285156 625.953125 644.144531 C 591.457031 611.8125 573.964844 551.542969 565.445312 504.953125 C 556.488281 455.960938 564.527344 431.441406 522.082031 420.078125 C 518.917969 419.234375 515.429688 419.535156 512.089844 419.40625 C 508.015625 419.246094 509.386719 421.988281 509.878906 432.519531 C 512.882812 496.503906 499.019531 605.121094 489.128906 634.007812 C 486.109375 628.414062 477.679688 605.664062 475.277344 598.167969 C 467.765625 574.730469 464.964844 550.375 462.394531 526.03125 C 451.332031 421.25 451.503906 403.316406 444.746094 405.328125 C 422.199219 412.039062 402.796875 413.359375 396.925781 437.230469 C 365.816406 563.625 373.882812 526.507812 380.558594 617.097656 C 386.988281 704.425781 369.710938 703.015625 365.394531 710.28125 C 381.324219 719.15625 397.035156 718.671875 415.214844 716.628906 C 421.980469 715.871094 422.304688 714.890625 420.816406 708.09375 C 414.699219 680.183594 411.234375 652.027344 412.941406 623.390625 C 417.515625 546.683594 419.28125 493.210938 430.367188 448.148438 Z M 279.222656 149.925781 C 279.222656 142.195312 279.53125 137.359375 279.875 121.816406 C 280.074219 112.796875 284.121094 106.5 292.285156 102.371094 C 314.792969 90.992188 354.296875 81.347656 383.726562 83.460938 C 426.597656 86.539062 426.976562 88.027344 433.3125 100.195312 C 462.109375 93.761719 491.402344 83.957031 536.234375 99.253906 C 554.835938 105.601562 553.890625 116.191406 548.535156 145.976562 C 574.707031 146.703125 613.429688 154.144531 639.910156 167.609375 C 660.65625 178.15625 655.257812 196.355469 649.335938 216.554688 C 667.71875 219.34375 683.511719 228.117188 699.496094 236.316406 C 708.714844 241.046875 712.101562 249.515625 712.363281 259.308594 C 712.769531 274.601562 707.109375 293.042969 702.441406 303.214844 C 698.203125 312.441406 697.066406 307.75 665.203125 303.097656 C 656.617188 301.839844 657.785156 301.132812 653.878906 320.546875 C 653.464844 322.609375 654.347656 323.828125 656.378906 324.097656 C 677.117188 326.878906 682.890625 323.132812 677.949219 356.0625 C 677.28125 360.503906 673.746094 363.53125 669.753906 365.011719 C 665.335938 366.652344 656.351562 369.152344 647.003906 370.46875 C 648.976562 387.226562 647.867188 389.09375 652.027344 390.722656 C 657.277344 392.773438 663.097656 390.914062 668.285156 389.195312 C 700.789062 378.433594 714.5 368.585938 719.554688 382.949219 C 721.007812 387.082031 722.148438 391.5625 722.214844 395.902344 C 722.871094 440.109375 724.667969 450.257812 689.347656 461.328125 C 690.734375 478.746094 690.917969 480.472656 672.902344 477.019531 C 657.898438 474.144531 644.859375 480.382812 626.148438 486.273438 C 622.84375 487.308594 623.75 487.828125 625.988281 499.585938 C 648.699219 494.714844 651.40625 493.476562 656.824219 519.023438 C 658.496094 526.925781 652.167969 529.566406 635.472656 536.207031 C 631.320312 537.863281 632.378906 537.566406 635.992188 555.589844 C 666.539062 544.5 657.292969 547.589844 679.734375 539.0625 C 686.203125 536.601562 690.378906 538.839844 691.417969 545.78125 C 693.214844 557.863281 692.390625 569.855469 690.582031 581.96875 C 686.4375 609.667969 648.746094 620.007812 621.5 626.4375 C 625.425781 630.308594 628.546875 634.097656 632.378906 636.917969 C 635.140625 638.949219 636.445312 641.046875 635.601562 644.097656 C 633.554688 651.507812 624.898438 661.253906 616.628906 664.71875 C 598.449219 672.34375 575.710938 684.449219 558.847656 657.703125 C 539.511719 627.019531 532.464844 561.644531 531.984375 558.953125 C 529.203125 576.128906 518.25 658.75 497.621094 680.273438 C 492.527344 685.585938 484.359375 684.777344 479.9375 678.890625 C 450.652344 639.902344 448.234375 611.542969 429.023438 515.824219 C 425.480469 559.609375 420.394531 617.214844 422.960938 661.042969 C 425.382812 702.488281 440.757812 721.394531 419.320312 725.015625 C 400.394531 728.210938 381.535156 728.617188 363.671875 719.738281 C 356.144531 715.996094 359.5 714.398438 351.445312 715.074219 C 335.28125 716.421875 319.566406 714.914062 305.03125 706.847656 C 297.675781 702.769531 298.621094 696.441406 297.777344 680.195312 C 292.246094 681.675781 286.800781 683.632812 281.191406 684.550781 C 244.617188 690.515625 217.960938 670.023438 207.070312 641.148438 C 198.742188 619.058594 197.476562 594.15625 194.902344 565.648438 C 169.144531 567.40625 139.566406 570.726562 138.148438 540.042969 C 137.703125 530.457031 137.886719 495.324219 139.289062 490.488281 C 143.007812 477.683594 144.769531 491.765625 198.941406 487.925781 C 209.992188 487.140625 200.90625 467.109375 217.640625 456.382812 C 228.386719 449.488281 240.496094 448.070312 252.695312 446.8125 C 286.832031 443.289062 282.757812 449.054688 282.757812 484.472656 C 287.816406 482.742188 292.5 481.144531 296.625 479.734375 C 291.25 458.425781 273.160156 413.4375 342.375 407.511719 C 360.878906 405.929688 365.074219 437.074219 366.804688 455.53125 C 369 478.886719 346.988281 488.808594 323.957031 494.570312 C 323.578125 499.433594 323.210938 504.191406 322.808594 509.328125 C 328.539062 508.8125 339.257812 506.066406 354.101562 503.570312 C 367.824219 501.257812 365.394531 511.445312 368.882812 515.890625 C 369.339844 513.382812 369.675781 510.839844 370.269531 508.367188 C 394.835938 406.488281 386.820312 411.476562 445.261719 395.867188 C 466.625 390.164062 458.269531 453.445312 481.167969 585.597656 C 482.164062 591.347656 484.53125 596.855469 485.984375 602.523438 C 497.117188 554.65625 499.480469 501.535156 501.074219 450.433594 C 502.125 416.71875 494.808594 413.382812 508.109375 410.777344 C 525.289062 407.410156 546.023438 418.410156 556.453125 429.757812 C 564.253906 438.246094 565.539062 447.910156 566.804688 451.554688 C 566.863281 451.730469 567.070312 451.851562 567.386719 452.183594 C 569.398438 449.167969 571.371094 446.207031 573.382812 443.183594 C 544.9375 407.929688 583.761719 416.851562 528.859375 407.875 C 497.785156 402.792969 479.203125 402.109375 464.636719 385.8125 C 464.144531 385.261719 462.714844 385.183594 461.828125 385.382812 C 441.03125 390.019531 419.703125 392.347656 399.621094 400.144531 C 390.871094 403.539062 386.789062 400.820312 386.496094 391.300781 C 384.207031 316.53125 385.058594 270.347656 385.058594 270.347656 C 378.109375 270.105469 376.363281 271.363281 376.355469 277.628906 C 376.28125 357.269531 377.15625 361.894531 375.675781 373.058594 C 374.191406 384.253906 363.246094 384.289062 345.832031 388.632812 C 280.261719 405.003906 279.773438 408.617188 279.773438 384.019531 C 268.863281 389.398438 260.929688 392.046875 250.339844 392.699219 C 246.144531 416.835938 235.464844 441.707031 214.816406 456.179688 C 206.148438 462.257812 195.839844 465.582031 185.296875 466.132812 C 174.863281 466.675781 162.839844 465.042969 152.917969 461.777344 C 140.558594 457.710938 130.941406 448.609375 123.542969 438.160156 C 122.824219 437.140625 122.121094 436.113281 121.4375 435.070312 C 82.242188 375.265625 103 274.320312 149.566406 244.300781 C 160.765625 237.082031 163.40625 239.238281 163.925781 234.191406 C 167.59375 198.34375 183.96875 169.535156 214.367188 150.285156 C 233.589844 138.109375 254.789062 136.621094 275.621094 148.242188 C 276.621094 148.796875 277.699219 149.21875 279.222656 149.925781 " fill-opacity="1" fill-rule="nonzero"/><path fill="#d9d9d9" d="M 130.527344 472.390625 C 131.105469 477.597656 125.4375 482.554688 119.652344 482.65625 C 112.75 482.777344 106.84375 476.523438 106.726562 468.976562 C 106.527344 455.316406 128.1875 451.480469 130.527344 472.390625 " fill-opacity="1" fill-rule="nonzero"/><path fill="#d9d9d9" d="M 505.574219 702.394531 C 503.738281 697.144531 506.207031 694.105469 510.050781 691.007812 C 520.820312 682.3125 528.089844 693.375 525.714844 701.011719 C 522.726562 710.605469 508.445312 710.632812 505.574219 702.394531 " fill-opacity="1" fill-rule="nonzero"/><path fill="#d9d9d9" d="M 470.5625 702.585938 C 470.636719 707.386719 465.097656 712.492188 459.660156 712.625 C 454.523438 712.75 449.542969 708.109375 449.355469 703.023438 C 449.179688 698.125 455.023438 692.6875 460.421875 692.734375 C 465.527344 692.769531 470.488281 697.585938 470.5625 702.585938 " fill-opacity="1" fill-rule="nonzero"/><path fill="#d9d9d9" d="M 167.207031 594.015625 C 167.296875 589.042969 171.5625 584.71875 176.367188 584.722656 C 181.957031 584.726562 186.996094 589.796875 186.90625 595.328125 C 186.820312 600.621094 182.222656 605.484375 177.496094 605.289062 C 172.570312 605.085938 167.117188 599.105469 167.207031 594.015625 " fill-opacity="1" fill-rule="nonzero"/><path fill="#d9d9d9" d="M 714.804688 357.449219 C 709.71875 357.53125 704.929688 352.917969 704.992188 347.992188 C 705.058594 343.070312 709.824219 337.988281 714.457031 337.898438 C 726.242188 337.667969 727.832031 357.230469 714.804688 357.449219 " fill-opacity="1" fill-rule="nonzero"/><path fill="#d9d9d9" d="M 683.570312 513.796875 C 679.132812 513.8125 674.386719 508.585938 674.328125 503.613281 C 674.265625 498.324219 678.148438 494.027344 682.984375 494.023438 C 693.902344 494.007812 698.164062 513.734375 683.570312 513.796875 " fill-opacity="1" fill-rule="nonzero"/><path fill="#d9d9d9" d="M 257.921875 416.917969 C 258.007812 412.679688 263.097656 408.289062 267.863281 408.355469 C 272.679688 408.417969 276.992188 413.046875 276.949219 418.105469 C 276.90625 423.046875 272.035156 427.4375 266.847656 427.214844 C 261.839844 426.996094 257.816406 422.355469 257.921875 416.917969 " fill-opacity="1" fill-rule="nonzero"/><path fill="#d9d9d9" d="M 480.671875 412.398438 C 484.210938 412.515625 487.476562 416.253906 487.367188 420.0625 C 487.089844 429.46875 471.976562 429.601562 472.328125 420.109375 C 472.453125 416.789062 477.324219 412.285156 480.671875 412.398438 " fill-opacity="1" fill-rule="nonzero"/><path fill="#d9d9d9" d="M 532.402344 650.121094 C 542.335938 650.148438 541.078125 662.460938 531.761719 662.371094 C 523.515625 662.292969 522.515625 650.097656 532.402344 650.121094 " fill-opacity="1" fill-rule="nonzero"/><path fill="#d9d9d9" d="M 712.046875 472.136719 C 717.636719 472.175781 718.503906 482.070312 712.257812 482.449219 C 706.191406 482.824219 705.71875 472.097656 712.046875 472.136719 " fill-opacity="1" fill-rule="nonzero"/><path fill="#d9d9d9" d="M 697.351562 332.457031 C 691.4375 332.664062 689.722656 323.109375 696.746094 323.238281 C 702.378906 323.34375 704.222656 332.226562 697.351562 332.457031 " fill-opacity="1" fill-rule="nonzero"/><path fill="#d9d9d9" d="M 452.929688 668.378906 C 453.277344 674.957031 443.492188 674.300781 443.671875 668.644531 C 443.859375 662.554688 452.628906 662.675781 452.929688 668.378906 " fill-opacity="1" fill-rule="nonzero"/><path fill="#d9d9d9" d="M 566.433594 133.910156 C 565.890625 128.546875 574.492188 126.738281 575.144531 133.3125 C 575.652344 138.488281 567.113281 140.59375 566.433594 133.910156 " fill-opacity="1" fill-rule="nonzero"/><path fill="#d9d9d9" d="M 481.496094 454.65625 C 481.828125 448.25 490.273438 448.472656 490.3125 454.09375 C 490.351562 459.894531 482.070312 460.789062 481.496094 454.65625 " fill-opacity="1" fill-rule="nonzero"/><path fill="#d9d9d9" d="M 383.125 411.964844 C 383.199219 418.277344 373.96875 417.953125 374.195312 411.972656 C 374.429688 405.867188 383.054688 406.246094 383.125 411.964844 " fill-opacity="1" fill-rule="nonzero"/><path fill="#d9d9d9" d="M 293 413.734375 C 291.496094 415.539062 288.574219 415.226562 287.144531 413.367188 C 286.585938 412.648438 286.136719 411.910156 286.007812 411.121094 C 285.25 406.300781 293.570312 405.324219 293.8125 410.96875 C 293.863281 412.109375 293.601562 413.007812 293 413.734375 " fill-opacity="1" fill-rule="nonzero"/><path fill="#d9d9d9" d="M 270.355469 127.734375 C 272.230469 128.945312 273.046875 131.503906 271.773438 133.34375 C 271.058594 134.378906 270.003906 134.8125 268.59375 134.792969 C 262.925781 134.71875 263.730469 126.351562 268.5625 126.996094 C 269.191406 127.078125 269.792969 127.363281 270.355469 127.734375 " fill-opacity="1" fill-rule="nonzero"/><path fill="#d9d9d9" d="M 123.226562 513.796875 C 119.570312 513.273438 118.117188 511.929688 118.230469 509.363281 C 118.472656 503.839844 126.925781 504.796875 126.070312 509.605469 C 125.773438 511.28125 124.019531 512.695312 123.226562 513.796875 " fill-opacity="1" fill-rule="nonzero"/><path fill="#d9d9d9" d="M 556.382812 688.199219 C 551.015625 688.265625 550.898438 680.511719 556.074219 680.230469 C 561.59375 679.933594 561.8125 688.132812 556.382812 688.199219 " fill-opacity="1" fill-rule="nonzero"/><path fill="#d9d9d9" d="M 576.632812 645.179688 C 580.335938 650.9375 580.335938 650.9375 588.214844 658.640625 C 570.167969 662.375 551.820312 607.421875 547.871094 564.464844 C 544.292969 525.546875 543.160156 526.957031 543.160156 511.082031 C 543.761719 511.082031 557.5625 615.542969 576.632812 645.179688 " fill-opacity="1" fill-rule="nonzero"/><path fill="#d9d9d9" d="M 441.105469 416.875 C 404.316406 431.03125 412.125 413.574219 382.992188 555.574219 C 382.839844 556.300781 380.746094 553.511719 381.105469 551.574219 C 405.421875 420.691406 400.675781 425.953125 437.636719 414.824219 C 439.21875 414.351562 441.796875 416.613281 441.105469 416.875 " fill-opacity="1" fill-rule="nonzero"/><path fill="#d9d9d9" d="M 549.894531 444.449219 C 532.859375 434.675781 515.859375 429.855469 514.917969 429.363281 C 515.984375 428.847656 522.617188 426.402344 547.625 439.773438 C 549.011719 440.566406 550.195312 444.246094 549.894531 444.449219 " fill-opacity="1" fill-rule="nonzero"/><path fill="#d9d9d9" d="M 405.347656 378.398438 C 400.128906 373.078125 399.605469 277.488281 404.753906 270.84375 C 407.640625 285.296875 404.140625 289.863281 405.34375 373.707031 C 405.363281 375 405.347656 376.292969 405.347656 378.398438 " fill-opacity="1" fill-rule="nonzero"/><path fill="#d9d9d9" d="M 479.445312 109.089844 C 483.4375 108.640625 487.460938 108.472656 491.476562 108.609375 C 501.285156 108.933594 514.066406 110.132812 524.34375 113.765625 C 525.863281 114.300781 527.011719 115.886719 528.339844 116.984375 C 526.703125 116.972656 494.203125 107.011719 439.140625 119.136719 C 439.902344 118.421875 447.3125 112.726562 479.445312 109.089844 " fill-opacity="1" fill-rule="nonzero"/><path fill="#d9d9d9" d="M 498.300781 248.640625 C 494.96875 250.566406 461.46875 256.929688 460.535156 256.789062 C 464.464844 252.558594 495.449219 246.492188 498.300781 248.640625 " fill-opacity="1" fill-rule="nonzero"/><path fill="#d9d9d9" d="M 406.351562 177.371094 C 406.953125 182 406.160156 203.523438 406.003906 207.914062 C 405.964844 208.941406 405.070312 209.941406 404.566406 210.957031 C 404.105469 209.992188 403.257812 209.027344 403.246094 208.054688 C 402.917969 176.765625 403.34375 182.210938 404.820312 177.125 C 405.328125 177.203125 405.839844 177.289062 406.351562 177.371094 " fill-opacity="1" fill-rule="nonzero"/><path fill="#d9d9d9" d="M 512.144531 229.632812 C 513.796875 217.984375 522.519531 193.933594 534.582031 176.34375 C 541.53125 166.210938 551.488281 162.671875 562.753906 164.40625 C 587.058594 168.152344 624.207031 173.640625 641.132812 190.050781 C 640.9375 190.34375 640.742188 190.640625 640.550781 190.9375 C 632.152344 188.238281 628.195312 179.984375 584.125 172.789062 C 553.339844 167.761719 541.28125 158.824219 521.804688 209.566406 C 521.1875 211.175781 514.375 228.730469 513.035156 229.828125 C 512.738281 229.761719 512.441406 229.699219 512.144531 229.632812 " fill-opacity="1" fill-rule="nonzero"/><path fill="#d9d9d9" d="M 585.757812 359.320312 C 564.667969 365.164062 530.988281 363.3125 523.058594 354.234375 C 523.15625 353.882812 546.855469 363.152344 588.863281 355.664062 C 589.0625 356.074219 587.113281 358.945312 585.757812 359.320312 " fill-opacity="1" fill-rule="nonzero"/><path fill="#d9d9d9" d="M 501.039062 285.742188 C 497.640625 298.761719 492.289062 311.046875 486.199219 323.0625 C 489.207031 309.914062 493.140625 297.105469 499.058594 285.019531 C 499.71875 285.257812 500.382812 285.496094 501.039062 285.742188 " fill-opacity="1" fill-rule="nonzero"/><path fill="#d9d9d9" d="M 550.722656 269.820312 C 556.167969 269.820312 548.289062 268.015625 578.660156 277.609375 C 581.324219 278.453125 584.0625 279.046875 586.574219 280.457031 C 573.660156 280.703125 562.621094 274.050781 550.546875 271.210938 C 550.605469 270.746094 550.667969 270.285156 550.722656 269.820312 " fill-opacity="1" fill-rule="nonzero"/><path fill="#d9d9d9" d="M 417.191406 108.144531 C 393.285156 104.929688 364.285156 98.96875 310.75 117.167969 C 298.019531 121.5 300.84375 123.023438 297.941406 158.773438 C 297.894531 159.308594 295.964844 156.09375 295.984375 155.296875 C 296.675781 124.171875 295.09375 118.558594 305.335938 115.421875 C 363.152344 97.707031 380.324219 100.128906 414.664062 105.886719 C 415.667969 106.050781 417.300781 107.859375 417.191406 108.144531 " fill-opacity="1" fill-rule="nonzero"/><path fill="#d9d9d9" d="M 354.199219 242.589844 C 356.671875 236.585938 392.558594 229.835938 397.554688 234.570312 C 383.085938 237.246094 368.589844 239.925781 354.199219 242.589844 " fill-opacity="1" fill-rule="nonzero"/><path fill="#d9d9d9" d="M 220.933594 609.988281 C 227.738281 646.066406 247.089844 663.425781 246.839844 663.75 C 218.617188 649.9375 213.492188 597.902344 213.492188 566.4375 C 214.09375 566.371094 218.335938 596.207031 220.933594 609.988281 " fill-opacity="1" fill-rule="nonzero"/><path fill="#d9d9d9" d="M 249.675781 509.910156 C 159.949219 511.605469 158.78125 504.09375 158.171875 511.296875 C 156.324219 533.054688 161.257812 548.21875 161.019531 548.484375 C 160.078125 547.628906 153.660156 541.167969 155.285156 512.53125 C 155.945312 500.910156 158.496094 505.988281 232.382812 508.558594 C 241.191406 508.859375 252.859375 509.851562 249.675781 509.910156 " fill-opacity="1" fill-rule="nonzero"/><path fill="#d9d9d9" d="M 271.984375 636.292969 C 291.925781 633.882812 303.175781 629.707031 306.480469 607.527344 C 307.363281 601.59375 308.582031 600.308594 314.570312 600.824219 C 319.859375 601.285156 324.121094 602.84375 324.121094 605.039062 C 320.960938 604.945312 320.960938 604.945312 317.441406 604.246094 C 307.496094 602.269531 311.152344 606.148438 305.800781 621.007812 C 300.191406 636.566406 281.640625 638.527344 271.984375 636.292969 " fill-opacity="1" fill-rule="nonzero"/><path fill="#d9d9d9" d="M 262.738281 465.40625 C 255.050781 468.269531 250.296875 467.757812 238.898438 470.328125 C 222.546875 474.027344 226.367188 478.796875 221.816406 493.421875 C 221.355469 493.34375 219.882812 491.445312 220.03125 490.652344 C 224.257812 467.976562 221.867188 470.636719 257.167969 464.824219 C 258.894531 464.539062 262.628906 465.046875 262.738281 465.40625 " fill-opacity="1" fill-rule="nonzero"/><path fill="#d9d9d9" d="M 256.691406 317.636719 C 264.03125 297.875 265.023438 232.515625 249.398438 212.691406 C 234.199219 193.402344 228.957031 276.121094 248.847656 307.609375 C 251.101562 311.179688 254.125 314.265625 256.691406 317.636719 Z M 238.242188 335.320312 C 242.429688 333.890625 249.550781 330.746094 251.738281 325.628906 C 247.917969 320.835938 243.851562 316.566406 240.742188 311.683594 C 226.996094 290.074219 223.902344 247.964844 228.726562 221.609375 C 231.144531 208.414062 235.554688 199.410156 248.847656 195.058594 C 252.207031 193.957031 259.171875 193.996094 260.929688 199.082031 C 255.722656 198.109375 253.46875 198.835938 249.339844 200.671875 C 276.535156 218.726562 272.972656 295.578125 266.878906 316.226562 C 263.589844 327.359375 250.359375 339.175781 238.242188 335.320312 " fill-opacity="1" fill-rule="nonzero"/><path fill="#d9d9d9" d="M 265.265625 200.828125 C 283.953125 220.730469 284.726562 273.183594 281.816406 301.382812 C 280.972656 309.574219 279.214844 319.132812 273.484375 327.65625 C 268.355469 335.28125 260.074219 340.945312 257.304688 338.820312 C 274.898438 326.355469 278.007812 318.660156 278.414062 273.582031 C 278.8125 229.5625 264.835938 201.136719 265.265625 200.828125 " fill-opacity="1" fill-rule="nonzero"/><path fill="#d9d9d9" d="M 257.417969 159.625 C 221.03125 152.886719 190.984375 201.136719 182.734375 229.480469 C 182.410156 230.605469 179.871094 229.644531 181.253906 224.605469 C 183.492188 216.433594 187.003906 208.574219 190.984375 201.136719 C 214.898438 156.414062 250.925781 150.441406 257.417969 159.625 " fill-opacity="1" fill-rule="nonzero"/><path fill="#d9d9d9" d="M 194.238281 323.992188 C 198.066406 331.679688 201.890625 339.375 205.71875 347.066406 C 200.121094 344.960938 192.027344 328.929688 194.238281 323.992188 " fill-opacity="1" fill-rule="nonzero"/><path fill="#d9d9d9" d="M 706.355469 393.40625 C 692.398438 408.34375 653.160156 414.9375 637.363281 404.207031 C 662.710938 407.902344 675.929688 407.902344 706.355469 393.40625 " fill-opacity="1" fill-rule="nonzero"/><path fill="#d9d9d9" d="M 648.984375 233.492188 C 662.453125 236.921875 690.796875 246.230469 693.273438 252.148438 C 677.320312 246.355469 661.488281 240.605469 645.660156 234.859375 C 645.695312 234.511719 648.003906 233.242188 648.984375 233.492188 " fill-opacity="1" fill-rule="nonzero"/><path fill="#d9d9d9" d="M 664.648438 340.875 C 661.273438 345.40625 637.386719 344.910156 634.355469 339.65625 C 644.601562 340.066406 654.78125 340.476562 664.648438 340.875 " fill-opacity="1" fill-rule="nonzero"/><path fill="#d9d9d9" d="M 581.234375 334.582031 C 579.308594 329.703125 581.648438 318.453125 585.953125 316.5 C 584.710938 323.046875 583.59375 328.9375 582.476562 334.828125 C 582.0625 334.746094 581.648438 334.664062 581.234375 334.582031 " fill-opacity="1" fill-rule="nonzero"/><path fill="#d9d9d9" d="M 610.425781 246.800781 C 609.621094 252.847656 606.617188 257.816406 602.753906 262.363281 C 603.675781 256.402344 606.03125 251.125 610.425781 246.800781 " fill-opacity="1" fill-rule="nonzero"/><path fill="#d9d9d9" d="M 191.636719 250.941406 C 145.976562 257.34375 124.265625 313.863281 123.578125 359.410156 C 123.070312 393.136719 138.792969 428.980469 138.5 429.144531 C 100.203125 374.476562 121.625 277.355469 171.050781 254.042969 C 175.707031 251.847656 185.820312 248.425781 191.636719 250.941406 " fill-opacity="1" fill-rule="nonzero"/><path fill="#d9d9d9" d="M 233.898438 363.804688 C 218.972656 367.136719 216.796875 366.515625 217.042969 371.734375 C 217.699219 385.734375 214.972656 398.957031 206.59375 410.53125 C 201.117188 418.085938 191.636719 423.105469 182.054688 420.882812 C 183.144531 420.390625 201.660156 420.042969 209.050781 397.050781 C 211.820312 388.421875 214.324219 379.835938 213.433594 370.664062 C 213.058594 366.796875 214.761719 364.875 218.445312 364.171875 C 233.792969 361.242188 234.042969 363.582031 233.898438 363.804688 " fill-opacity="1" fill-rule="nonzero"/><path fill="#d9d9d9" d="M 202.863281 306.816406 C 197.609375 282.347656 182.578125 281.660156 182.730469 281.253906 C 205.71875 278.824219 203.304688 306.882812 202.863281 306.816406 " fill-opacity="1" fill-rule="nonzero"/><path fill="#d9d9d9" d="M 656.234375 433.097656 C 589.453125 450.789062 597.402344 446.574219 578.121094 473.773438 C 576.847656 475.570312 573.996094 473.675781 575.671875 471.167969 C 594.132812 443.496094 587.261719 445.871094 650.242188 431.945312 C 656.289062 430.605469 656.289062 432.695312 656.234375 433.097656 " fill-opacity="1" fill-rule="nonzero"/><path fill="#d9d9d9" d="M 619.433594 574.421875 C 646.542969 574.667969 669 560.324219 678.570312 557.246094 C 678.488281 557.367188 678.402344 557.488281 678.308594 557.621094 C 676.160156 560.554688 673.347656 562.921875 670.1875 564.714844 C 656.28125 572.597656 643.542969 577.277344 626.71875 577.730469 C 623.761719 577.804688 620.371094 577.265625 619.433594 574.421875 " fill-opacity="1" fill-rule="nonzero"/><path fill="#d9d9d9" d="M 640.824219 513.515625 C 633.171875 515.21875 625.523438 516.917969 617.441406 518.714844 C 619.746094 515.054688 636.960938 510.808594 640.824219 513.515625 " fill-opacity="1" fill-rule="nonzero"/><path fill="#d9d9d9" d="M 349.78125 525.597656 C 329.023438 536.511719 310.273438 530.589844 310.234375 552.03125 C 310.203125 567.054688 311.40625 571.949219 310.359375 579.042969 C 310.050781 579.125 308.160156 577.933594 308.132812 577.238281 C 306.402344 531.277344 301.859375 536.660156 346.839844 524.648438 C 347.660156 524.429688 349.679688 525.269531 349.78125 525.597656 " fill-opacity="1" fill-rule="nonzero"/><path fill="#d9d9d9" d="M 317.015625 695.015625 C 315.28125 691.46875 314.886719 694.765625 315.277344 674.242188 C 315.296875 673.402344 316.195312 672.585938 316.691406 671.757812 C 318.242188 674.441406 318.261719 670.378906 318.035156 692.113281 C 318.027344 692.734375 317.617188 693.347656 317.015625 695.015625 " fill-opacity="1" fill-rule="nonzero"/><path fill="#d9d9d9" d="M 324.234375 432.191406 C 313.140625 436.902344 308.613281 440.769531 308.574219 448.585938 C 308.535156 456.257812 310.035156 465.160156 312.144531 469.6875 C 311.183594 468.960938 309.667969 469.6875 307.824219 465.730469 C 295.023438 428.871094 328.867188 427.160156 341.738281 424.5625 C 342.207031 424.46875 332.796875 428.554688 324.234375 432.191406 " fill-opacity="1" fill-rule="nonzero"/><path fill="#d9d9d9" d="M 485.140625 212.921875 C 479.472656 212.765625 478.566406 204.3125 485.066406 204.144531 C 490.160156 204.015625 491.957031 212.125 485.140625 212.921875 " fill-opacity="1" fill-rule="nonzero"/></svg>