<svg xmlns="http://www.w3.org/2000/svg" xmlns:xlink="http://www.w3.org/1999/xlink" fill="#d6d6d6" height="800px" width="800px" version="1.1" id="Layer_1" viewBox="0 0 511.999 511.999" xml:space="preserve">
<g>
	<g>
		<path d="M142.846,116.826c-26.321,0-47.735,21.414-47.735,47.735s21.414,47.735,47.735,47.735s47.735-21.414,47.735-47.735    S169.167,116.826,142.846,116.826z M142.846,197.088c-17.935,0-32.527-14.591-32.527-32.527c0-17.935,14.591-32.527,32.527-32.527    c17.935,0,32.527,14.591,32.527,32.527C175.373,182.496,160.781,197.088,142.846,197.088z" fill="#d6d6d6"/>
	</g>
</g>
<g>
	<g>
		<path d="M345.712,245.468c-26.321,0-47.735,21.414-47.735,47.735s21.414,47.735,47.735,47.735s47.735-21.414,47.735-47.735    S372.032,245.468,345.712,245.468z M345.712,325.729c-17.935,0-32.527-14.591-32.527-32.527c0-17.935,14.591-32.527,32.527-32.527    c17.935,0,32.527,14.591,32.527,32.527C378.238,311.138,363.647,325.729,345.712,325.729z" fill="#d6d6d6"/>
	</g>
</g>
<g>
	<g>
		<path d="M448.355,64.757c-3.715-3.716-5.761-8.654-5.761-13.907c0-19.231-15.645-34.875-34.875-34.875    c-5.254,0-10.192-2.046-13.907-5.761v0.001C387.226,3.628,378.468,0,369.152,0c-9.315,0-18.073,3.628-24.66,10.215    c-3.715,3.715-8.653,5.761-13.907,5.761c-19.23,0-34.875,15.645-34.875,34.875c0,5.253-2.046,10.192-5.76,13.906    c-6.587,6.587-10.215,15.345-10.215,24.66s3.628,18.073,10.215,24.659c2.426,2.426,4.124,5.38,5.022,8.597    c-3.986,7.639-17.394,35.511-30.841,88.146c-9.755,38.188-20.782,95.002-26.852,171.642c-6.599-36.219-15.314-65.17-23.252-86.607    c-10.402-28.096-20.789-47.366-27.399-58.244c16.764-2.526,29.659-17.026,29.659-34.483c0-5.253,2.046-10.191,5.761-13.906    c6.587-6.587,10.215-15.345,10.215-24.66s-3.628-18.073-10.215-24.659c-3.715-3.716-5.761-8.654-5.761-13.908    c0-19.23-15.645-34.874-34.875-34.874c-5.254,0-10.192-2.046-13.906-5.761v-0.001c-13.598-13.596-35.722-13.597-49.32,0.001    c-3.715,3.715-8.653,5.761-13.906,5.761c-19.23,0-34.875,15.645-34.875,34.874c0,5.254-2.046,10.192-5.761,13.907    c-6.587,6.587-10.215,15.345-10.215,24.66s3.628,18.073,10.215,24.659c3.715,3.716,5.761,8.654,5.761,13.907    C69.405,222.356,85.05,238,104.28,238c5.253,0,10.191,2.046,13.906,5.76c6.587,6.588,15.345,10.216,24.66,10.216    c9.315,0,18.073-3.628,24.66-10.215c1.024-1.024,2.147-1.907,3.339-2.669c5.618,8.693,17.467,28.912,29.212,60.829    c2.492,6.773,5.064,14.338,7.62,22.652c-11.809-2.726-29.601-4.672-46.596,1.874c-28.356,10.918-42.519,40.858-43.109,42.127    c-0.868,1.869-0.94,4.01-0.199,5.934c0.74,1.922,2.229,3.463,4.127,4.267c0.903,0.383,16.219,6.75,35.073,6.75    c8.024,0,16.691-1.155,25.156-4.414c15.349-5.91,26.531-17.388,33.66-26.88c9.347,38.707,16.862,88.875,16.862,150.166    c0,4.2,3.405,7.604,7.604,7.604c4.199,0,7.604-3.404,7.604-7.604c0-35.536,6.733-64.471,14.613-86.172    c7.836,9.237,20.859,21.332,38.273,26.247c6.129,1.731,12.26,2.418,18.134,2.418c22.151,0,40.649-9.779,41.623-10.303    c1.815-0.976,3.155-2.646,3.716-4.63c0.56-1.983,0.291-4.108-0.745-5.891c-0.704-1.208-17.571-29.713-46.812-37.967    c-14.872-4.199-29.748-2.256-40.946,0.752c6.697-12.182,13.059-20.682,16.924-25.379c4.421,2.032,9.333,3.173,14.508,3.173    c5.253,0,10.191,2.046,13.906,5.76c6.587,6.588,15.345,10.216,24.66,10.216c9.315,0,18.073-3.628,24.66-10.215    c3.715-3.715,8.653-5.761,13.907-5.761c19.23,0,34.875-15.645,34.875-34.874c0-5.254,2.046-10.192,5.761-13.907    c13.598-13.598,13.598-35.722,0-49.32c-3.715-3.716-5.761-8.654-5.761-13.908c0-19.23-15.645-34.874-34.875-34.874    c-5.254,0-10.192-2.046-13.907-5.761v0.001c-6.589-6.587-15.347-10.215-24.662-10.215c-9.315,0-18.074,3.628-24.66,10.215    c-3.715,3.715-8.653,5.761-13.906,5.761c-19.23,0-34.875,15.645-34.875,34.874c0,4.856-1.767,9.431-4.965,13.031    c3.72-20.177,7.609-37.521,11.311-52.098c8.184-32.227,16.419-55.033,22.304-69.277c6.153,9.934,17.147,16.568,29.667,16.568    c5.253,0,10.191,2.046,13.906,5.762c6.799,6.798,15.729,10.197,24.66,10.197s17.862-3.399,24.661-10.198    c3.715-3.715,8.653-5.761,13.906-5.761c19.23,0,34.875-15.645,34.875-34.874c0-5.254,2.046-10.192,5.76-13.907    c6.587-6.587,10.215-15.345,10.215-24.66C458.57,80.102,454.941,71.343,448.355,64.757z M156.752,233.009    c-3.715,3.714-8.653,5.761-13.906,5.761c-5.254,0-10.192-2.047-13.907-5.762c-6.588-6.586-15.345-10.214-24.66-10.214    c-10.844,0-19.667-8.823-19.667-19.667c0-9.315-3.628-18.072-10.215-24.66c-3.715-3.714-5.761-8.652-5.761-13.906    s2.046-10.192,5.761-13.907c6.587-6.587,10.215-15.346,10.215-24.66c0-10.844,8.823-19.666,19.667-19.666    c9.315,0,18.073-3.628,24.66-10.215c3.834-3.834,8.87-5.752,13.906-5.752c5.037,0,10.073,1.917,13.906,5.751    c6.587,6.588,15.345,10.216,24.661,10.216c10.844,0,19.667,8.822,19.667,19.666c0,9.315,3.628,18.073,10.215,24.661    c3.715,3.714,5.761,8.652,5.761,13.906c0,5.254-2.046,10.192-5.761,13.907c-6.587,6.587-10.215,15.345-10.215,24.659    c0,10.844-8.823,19.667-19.667,19.667C172.097,222.794,163.339,226.422,156.752,233.009z M176.664,366.918    c-14.763,5.682-31.033,3.043-40.57,0.518c5.354-8.259,15.613-21.085,30.45-26.798c14.759-5.683,31.028-3.044,40.57-0.517    C201.76,348.379,191.501,361.206,176.664,366.918z M312.527,402.734c15.208,4.293,26.643,16.14,32.769,23.882    c-9.271,3.395-25.215,7.512-40.42,3.221c-15.209-4.293-26.646-16.144-32.77-23.881C281.376,402.56,297.32,398.441,312.527,402.734    z M277.264,279.297c6.587-6.587,10.214-15.345,10.214-24.66c0-10.844,8.823-19.666,19.667-19.666    c9.315,0,18.072-3.628,24.66-10.215c3.715-3.714,8.653-5.761,13.907-5.761c5.253,0,10.191,2.047,13.906,5.761v0.001    c6.588,6.586,15.345,10.214,24.66,10.214c10.844,0,19.667,8.822,19.667,19.666c0,9.315,3.628,18.073,10.215,24.661    c7.668,7.668,7.668,20.144,0,27.813c-6.587,6.587-10.215,15.346-10.215,24.66c0,10.844-8.823,19.666-19.667,19.666    c-9.315,0-18.073,3.628-24.66,10.215c-3.715,3.714-8.653,5.761-13.906,5.761c-5.254,0-10.192-2.047-13.907-5.762    c-6.588-6.586-15.345-10.214-24.66-10.214c-10.844,0-19.667-8.822-19.667-19.666c0-9.315-3.628-18.073-10.215-24.661    c-3.715-3.714-5.761-8.652-5.761-13.906S273.549,283.011,277.264,279.297z M272.269,331.771c0,8.552,3.099,16.39,8.227,22.463    c-6.848,8.325-19.187,25.465-29.624,51.427c2.273-35.999,5.666-67.917,9.607-95.867c1.589,2.929,3.607,5.646,6.028,8.068    C270.223,321.578,272.269,326.517,272.269,331.771z M437.6,103.324c-6.587,6.588-10.214,15.346-10.214,24.66    c0,10.844-8.823,19.666-19.667,19.666c-9.315,0-18.074,3.628-24.66,10.215c-7.668,7.668-20.145,7.668-27.813,0.001    c-6.587-6.588-15.345-10.216-24.661-10.216c-10.844,0-19.667-8.822-19.667-19.666c0-9.315-3.628-18.073-10.215-24.661    c-3.715-3.714-5.761-8.652-5.761-13.906c0-5.254,2.046-10.192,5.761-13.907c6.587-6.587,10.214-15.345,10.214-24.659    c0-10.844,8.823-19.667,19.667-19.667c9.315,0,18.072-3.628,24.66-10.215c3.715-3.714,8.653-5.761,13.906-5.761    c5.254,0,10.192,2.047,13.907,5.761v0.001c6.588,6.586,15.345,10.214,24.66,10.214c10.844,0,19.667,8.823,19.667,19.667    c0,9.314,3.628,18.071,10.215,24.66c3.715,3.714,5.761,8.652,5.761,13.906S441.315,99.609,437.6,103.324z" fill="#d6d6d6"/>
	</g>
</g>
<g>
	<g>
		<path d="M369.153,41.682c-26.321,0-47.735,21.414-47.735,47.735s21.414,47.735,47.735,47.735s47.735-21.414,47.735-47.735    S395.474,41.682,369.153,41.682z M369.153,121.943c-17.935,0-32.527-14.591-32.527-32.527c0-17.935,14.591-32.527,32.527-32.527    c17.935,0,32.527,14.591,32.527,32.527C401.68,107.352,387.088,121.943,369.153,121.943z" fill="#d6d6d6"/>
	</g>
</g>
</svg>